<svg width="167" height="63" viewBox="0 0 167 63" fill="none" xmlns="http://www.w3.org/2000/svg">
<g id="logo">
<g id="Group 1">
<path id="Ellipse 1" d="M167 31.2388C167 48.4915 153.014 62.4776 135.761 62.4776C127.834 62.4776 120.597 59.525 115.089 54.6594C108.609 48.9356 104.522 40.5644 104.522 31.2388C104.522 13.9861 118.509 0 135.761 0C153.014 0 167 13.9861 167 31.2388Z" fill="#24C1F2"/>
<path id="Vector 1" d="M109.576 14.7033C162.246 13.4926 146.328 29.8633 115.548 55.13C120.721 59.3789 123.945 61.0848 130.708 62.021C173.049 25.2318 174.959 11.9132 112.792 10.1094C111.411 11.6013 110.702 12.5905 109.576 14.7033Z" fill="#020505"/>
</g>
<g id="dye">
<path id="Vector" d="M124.81 32.8736L124.81 32.8737L124.811 32.8683L126.313 27.0559C126.457 26.6202 126.53 26.1796 126.53 25.7357C126.53 24.2184 125.883 22.9634 124.636 22.0023C123.438 21.0457 121.925 20.5859 120.136 20.5859H98.2621C96.1495 20.5859 94.1758 21.2078 92.3514 22.4389C90.5752 23.6234 89.4331 25.0701 89.0022 26.79L85.9289 38.4293C85.7835 38.8712 85.7119 39.3344 85.7119 39.8161C85.7119 41.3272 86.3312 42.5821 87.5368 43.5466L87.5453 43.5534L87.5542 43.5598C88.7918 44.4642 90.3201 44.9004 92.106 44.9004H116.534C116.791 44.9004 117.08 44.8305 117.38 44.7246C117.687 44.6163 118.039 44.4583 118.433 44.2557C119.219 43.8515 120.205 43.2525 121.386 42.465C121.619 42.3237 121.946 42.0651 121.946 41.6499C121.946 41.5122 121.903 41.3741 121.812 41.2569C121.726 41.1469 121.619 41.0819 121.528 41.0429C121.357 40.9697 121.16 40.9534 120.987 40.9534H101.209C100.984 40.9534 100.888 40.9145 100.86 40.8981C100.859 40.8913 100.858 40.8803 100.858 40.864C100.858 40.1415 100.984 39.6881 101.163 39.4276C101.318 39.2011 101.545 39.0718 101.93 39.0718H115.486C117.594 39.0718 119.545 38.4745 121.328 37.2867C123.15 36.1018 124.334 34.6343 124.81 32.8736ZM108.716 34.7102L108.714 34.7183L108.712 34.7264C108.67 34.9088 108.595 35.0049 108.507 35.0648C108.41 35.1315 108.241 35.1903 107.955 35.1903H102.715C102.482 35.1903 102.398 35.1429 102.382 35.1302C102.378 35.1272 102.378 35.1268 102.376 35.1232L102.376 35.1231C102.374 35.1185 102.369 35.1057 102.366 35.081C102.373 35.0563 102.381 35.0242 102.391 34.9841C102.418 34.8751 102.46 34.7132 102.516 34.4978C102.628 34.0675 102.795 33.4268 103.019 32.5756C103.466 30.8761 104.135 28.3388 105.028 24.9636C105.084 24.8048 105.163 24.7121 105.258 24.6522C105.363 24.586 105.53 24.533 105.793 24.533H111.033C111.257 24.533 111.353 24.5715 111.381 24.5881C111.375 24.6136 111.367 24.6481 111.356 24.6921C111.329 24.8039 111.288 24.9682 111.232 25.1859C111.12 25.621 110.953 26.2638 110.729 27.1149C110.282 28.8169 109.611 31.3485 108.716 34.7102ZM111.39 24.5471C111.39 24.5476 111.39 24.5485 111.39 24.5499C111.391 24.5403 111.392 24.538 111.39 24.5471Z" fill="white" stroke="#020505"/>
<path id="Vector_2" d="M72.0382 21.0859H84.5469C85.1144 21.0859 85.3982 21.3042 85.3982 21.7408C85.3982 21.7845 85.3764 21.85 85.3327 21.9373L79.3731 44.4004C78.9365 45.9722 77.8669 47.3257 76.1641 48.4608C74.4614 49.596 72.584 50.1636 70.532 50.1636H49.7716C49.073 50.1636 48.5272 49.9889 48.1343 49.6397L46.4316 47.8714C46.3442 47.7404 46.3006 47.6313 46.3006 47.544C46.3006 47.3693 46.4971 47.282 46.89 47.282H63.0006C64.0921 47.282 64.6378 46.518 64.6378 44.9899C64.6378 44.5969 64.354 44.4004 63.7865 44.4004H50.2955C48.5927 44.4004 47.1738 43.9638 46.0386 43.0906C44.9471 42.2174 44.4014 41.1041 44.4014 39.7506C44.4014 39.3577 44.445 38.9648 44.5323 38.5718L48.1998 24.8189C48.2435 24.6879 48.2653 24.5787 48.2653 24.4914C48.2653 23.9238 47.8723 23.3126 47.0865 22.6577C46.3442 21.9591 45.9731 21.5225 45.9731 21.3479C45.9731 21.1733 46.1696 21.0859 46.5625 21.0859H62.7386C63.2625 21.0859 63.5245 21.3042 63.5245 21.7408C63.5245 21.7845 63.5245 21.85 63.5245 21.9373L58.5472 40.6675C58.5472 40.7112 58.5254 40.7548 58.4818 40.7985C58.4818 41.2351 58.7655 41.4534 59.3331 41.4534H64.5723C65.2709 41.4534 65.6857 41.1914 65.8167 40.6675L70.7939 21.9373C70.9249 21.3697 71.3397 21.0859 72.0382 21.0859Z" fill="white"/>
<path id="Vector_3" d="M36.1506 40.2757C36.1506 40.7559 36.609 41.0615 37.5259 41.1925C38.4427 41.2798 38.9012 41.4108 38.9012 41.5855C38.9012 41.7164 38.7702 41.8693 38.5082 42.0439L35.8886 43.8121C35.2774 44.1614 34.6443 44.336 33.9894 44.336H5.89412C4.19137 44.336 2.77242 43.9213 1.63726 43.0917C0.545752 42.2185 0 41.1052 0 39.7517C0 39.3588 0.0654902 38.9659 0.196471 38.5729L3.27451 26.9157C3.66745 25.3002 4.71529 23.9249 6.41804 22.7898C8.16445 21.6546 10.0418 21.087 12.0502 21.087H25.6067C26.6982 21.087 27.2439 20.2793 27.2439 18.6639C27.2439 18.14 26.851 17.5287 26.0651 16.8302C25.3229 16.1316 24.9518 15.695 24.9518 15.5204C24.9518 15.3021 25.1701 15.1711 25.6067 15.1274L42.4376 12.5078C42.525 12.5078 42.6123 12.5078 42.6996 12.5078C43.0926 12.5078 43.289 12.6606 43.289 12.9662C43.289 13.0536 43.289 13.1191 43.289 13.1627L36.1506 40.0792C36.1506 40.1228 36.1506 40.1883 36.1506 40.2757ZM20.171 41.4545C20.8695 41.4545 21.2843 41.1925 21.4153 40.6686L25.6722 24.82C25.6722 24.7763 25.6722 24.7108 25.6722 24.6235C25.6722 24.1869 25.3884 23.9686 24.8208 23.9686H19.5816C18.9267 23.9686 18.5119 24.2524 18.3373 24.82L14.1459 40.6686C14.1459 40.7123 14.1459 40.7559 14.1459 40.7996C14.1459 41.2362 14.4297 41.4545 14.9973 41.4545H20.171Z" fill="white"/>
</g>
</g>
</svg>
